# xmcd
#
# Track frame offsets:
#	150
#	3253
#	18944
#	40494
#	57585
#	84823
#	99782
#	121901
#	142813
#	168438
#	192519
#	208703
#	226918
#	242656
#	260865
#
# Disc length: 3747 seconds
# Revision: 1
# Processed by: cddbd v1.5.2PL0 Copyright (c) Steve Scherf et al.
# Submitted via: dBpowerAMP V12.0
#
DISCID=bf0ea10f
DTITLE=Various Artist - In My Mind
DYEAR=2016
DGENRE=R&B
TTITLE0=BJ,TheChicagoKid,AKABryanJamesSledge,Chicago,IL - Intro (Inside My Mind)
TTITLE1=BJ,TheChicagoKid,AKABryanJamesSledge,Chicago,IL,featuringBuddy and Constantine - Man Down
TTITLE2=BJ,TheChicagoKid,AKABryanJamesSledge,Chicago,IL,featuringChance the Rapper and Buddy - Church
TTITLE3=BJ,TheChicagoKid,AKABryanJamesSledge,Chicago,IL,featuringIsabella - Love Inside
TTITLE4=BJ,TheChicagoKid,AKABryanJamesSledge,Chicago,IL,featuringBig K.R.I.T. - The Resume
TTITLE5=BJ,TheChicagoKid,AKABryanJamesSledge,Chicago,IL - Shine
TTITLE6=BJ,TheChicagoKid,AKABryanJamesSledge,Chicago,IL,featuringIsa - Wait Til The Morning
TTITLE7=BJ,TheChicagoKid,AKABryanJamesSledge,Chicago,IL - Heart Crish
TTITLE8=BJ,TheChicagoKid,AKABryanJamesSledge,Chicago,IL,featuringEric Ingram - World Needs More Love
TTITLE9=BJ,TheChicagoKid,AKABryanJamesSledge,Chicago,IL,featuringKendrick Lamar - The New Cupid
TTITLE10=BJ,TheChicagoKid,AKABryanJamesSledge,Chicago,IL - Woman's World
TTITLE11=BJ,TheChicagoKid,AKABryanJamesSledge,Chicago,IL - Crazy
TTITLE12=BJ,TheChicagoKid,AKABryanJamesSledge,Chicago,IL - Home
TTITLE13=BJ,TheChicagoKid,AKABryanJamesSledge,Chicago,IL - Falling On My Face
TTITLE14=BJ,TheChicagoKid,AKABryanJamesSledge,Chicago,IL - Turnin' Me Up
EXTD=
EXTT0=
EXTT1=
EXTT2=
EXTT3=
EXTT4=
EXTT5=
EXTT6=
EXTT7=
EXTT8=
EXTT9=
EXTT10=
EXTT11=
EXTT12=
EXTT13=
EXTT14=
PLAYORDER=
